<svg xmlns="http://www.w3.org/2000/svg" xmlns:xlink="http://www.w3.org/1999/xlink" width="1000" zoomAndPan="magnify" viewBox="0 0 750 225" height="300" preserveAspectRatio="xMidYMid meet" version="1.0"><defs><g/><clipPath id="5ec447a679"><rect x="0" width="627" y="0" height="113"/></clipPath><clipPath id="350a428ecd"><rect x="0" width="362" y="0" height="101"/></clipPath></defs><g transform="matrix(1, 0, 0, 1, 69, 26)"><g clip-path="url(#5ec447a679)"><g fill="#000000" fill-opacity="1"><g transform="translate(1.866661, 84.689385)"><g><path d="M 24.875 0 L 8.921875 0 L 8.921875 -79.78125 L 24.875 -79.78125 Z M 24.875 0 "/></g></g></g><g fill="#000000" fill-opacity="1"><g transform="translate(51.073299, 84.689385)"><g><path d="M 24.875 -43.40625 L 24.875 0 L 8.921875 0 L 8.921875 -81.453125 L 13.171875 -81.453125 L 53.453125 -34.59375 L 53.453125 -79.671875 L 69.515625 -79.671875 L 69.515625 1.671875 L 65.265625 1.671875 Z M 24.875 -43.40625 "/></g></g></g><g fill="#000000" fill-opacity="1"><g transform="translate(144.910141, 84.689385)"><g><path d="M 5.25 -5.125 L 7.25 -21.875 C 10.300781 -19.71875 13.332031 -18.171875 16.34375 -17.234375 C 19.351562 -16.304688 22.085938 -15.765625 24.546875 -15.609375 C 27.003906 -15.460938 28.828125 -15.429688 30.015625 -15.515625 C 32.390625 -15.660156 34.414062 -16.492188 36.09375 -18.015625 C 37.769531 -19.546875 38.492188 -21.390625 38.265625 -23.546875 C 38.117188 -25.847656 37.265625 -27.59375 35.703125 -28.78125 C 34.140625 -29.976562 32.242188 -30.945312 30.015625 -31.6875 C 25.847656 -33.25 21.957031 -35.050781 18.34375 -37.09375 C 14.738281 -39.144531 11.835938 -41.691406 9.640625 -44.734375 C 7.453125 -47.785156 6.359375 -51.546875 6.359375 -56.015625 C 6.359375 -60.472656 7.304688 -64.503906 9.203125 -68.109375 C 11.097656 -71.722656 13.753906 -74.609375 17.171875 -76.765625 C 20.597656 -78.921875 24.507812 -80.113281 28.90625 -80.34375 C 30.976562 -80.488281 33.519531 -80.410156 36.53125 -80.109375 C 39.550781 -79.816406 43.628906 -78.773438 48.765625 -76.984375 L 46.75 -61.59375 C 42.363281 -63.375 38.867188 -64.394531 36.265625 -64.65625 C 33.660156 -64.914062 31.722656 -65.007812 30.453125 -64.9375 C 27.628906 -64.789062 25.566406 -63.820312 24.265625 -62.03125 C 22.960938 -60.25 22.382812 -58.242188 22.53125 -56.015625 C 22.757812 -53.785156 23.726562 -52.09375 25.4375 -50.9375 C 27.144531 -49.78125 29.15625 -48.796875 31.46875 -47.984375 C 35.632812 -46.492188 39.460938 -44.648438 42.953125 -42.453125 C 46.453125 -40.253906 49.257812 -37.613281 51.375 -34.53125 C 53.5 -31.445312 54.5625 -27.785156 54.5625 -23.546875 C 54.5625 -19.148438 53.59375 -15.164062 51.65625 -11.59375 C 49.726562 -8.03125 46.957031 -5.171875 43.34375 -3.015625 C 39.738281 -0.859375 35.441406 0.367188 30.453125 0.671875 C 28.972656 0.742188 26.945312 0.6875 24.375 0.5 C 21.8125 0.3125 18.894531 -0.207031 15.625 -1.0625 C 12.351562 -1.914062 8.894531 -3.269531 5.25 -5.125 Z M 5.25 -5.125 "/></g></g></g><g fill="#000000" fill-opacity="1"><g transform="translate(219.221279, 84.689385)"><g><path d="M 38.046875 0 L 22.09375 0 L 22.09375 -63.828125 L 2.234375 -63.828125 L 2.234375 -79.671875 L 57.90625 -79.671875 L 57.90625 -63.828125 L 38.046875 -63.828125 Z M 38.046875 0 "/></g></g></g><g fill="#000000" fill-opacity="1"><g transform="translate(295.540763, 84.689385)"><g><path d="M 1.78125 0 L 35.375 -82.671875 L 37.046875 -82.671875 L 70.625 0 L 52.671875 0 L 49.421875 -8.59375 L 22.984375 -8.59375 L 19.859375 0 Z M 28.78125 -23.546875 L 43.515625 -23.546875 L 36.265625 -44.296875 Z M 28.78125 -23.546875 "/></g></g></g><g fill="#000000" fill-opacity="1"><g transform="translate(383.687254, 84.689385)"><g><path d="M 24.875 -43.40625 L 24.875 0 L 8.921875 0 L 8.921875 -81.453125 L 13.171875 -81.453125 L 53.453125 -34.59375 L 53.453125 -79.671875 L 69.515625 -79.671875 L 69.515625 1.671875 L 65.265625 1.671875 Z M 24.875 -43.40625 "/></g></g></g><g fill="#000000" fill-opacity="1"><g transform="translate(477.524096, 84.689385)"><g><path d="M 38.046875 0 L 22.09375 0 L 22.09375 -63.828125 L 2.234375 -63.828125 L 2.234375 -79.671875 L 57.90625 -79.671875 L 57.90625 -63.828125 L 38.046875 -63.828125 Z M 38.046875 0 "/></g></g></g><g fill="#000000" fill-opacity="1"><g transform="translate(553.84358, 84.689385)"><g><path d="M 50.203125 0 L 8.921875 0 L 8.921875 -79.78125 L 48.875 -79.78125 L 48.875 -63.828125 L 24.875 -63.828125 L 24.875 -47.859375 L 45.859375 -47.859375 L 45.859375 -31.90625 L 24.875 -31.90625 L 24.875 -15.953125 L 50.203125 -15.953125 Z M 50.203125 0 "/></g></g></g></g></g><g transform="matrix(1, 0, 0, 1, 196, 113)"><g clip-path="url(#350a428ecd)"><g fill="#000000" fill-opacity="1"><g transform="translate(0.448626, 69.891572)"><g><path d="M 62.921875 -37.5625 C 63.535156 -37.3125 64.03125 -36.816406 64.40625 -36.078125 C 64.789062 -35.335938 64.894531 -34.710938 64.71875 -34.203125 C 64.539062 -33.703125 63.941406 -33.65625 62.921875 -34.0625 C 60.066406 -35.226562 57.0625 -35.976562 53.90625 -36.3125 C 50.75 -36.644531 47.578125 -36.769531 44.390625 -36.6875 C 41.210938 -36.613281 38.097656 -36.550781 35.046875 -36.5 C 34.179688 -36.5 33.300781 -36.484375 32.40625 -36.453125 C 31.519531 -36.429688 30.644531 -36.394531 29.78125 -36.34375 C 30.1875 -35.988281 30.503906 -35.566406 30.734375 -35.078125 C 30.960938 -34.597656 30.972656 -34.179688 30.765625 -33.828125 C 27.203125 -26.847656 24.222656 -19.59375 21.828125 -12.0625 C 19.441406 -4.53125 17.738281 3.128906 16.71875 10.921875 C 16.613281 11.523438 16.34375 11.851562 15.90625 11.90625 C 15.476562 11.957031 15 11.816406 14.46875 11.484375 C 13.9375 11.160156 13.476562 10.753906 13.09375 10.265625 C 12.707031 9.785156 12.539062 9.316406 12.59375 8.859375 C 13.664062 1.015625 15.375 -6.695312 17.71875 -14.28125 C 20.0625 -21.863281 23.039062 -29.191406 26.65625 -36.265625 C 19.519531 -36.066406 12.390625 -35.6875 5.265625 -35.125 C 4.804688 -35.070312 4.332031 -35.234375 3.84375 -35.609375 C 3.363281 -35.992188 2.957031 -36.453125 2.625 -36.984375 C 2.300781 -37.523438 2.164062 -38.007812 2.21875 -38.4375 C 2.269531 -38.875 2.597656 -39.117188 3.203125 -39.171875 C 8.453125 -39.578125 13.707031 -39.894531 18.96875 -40.125 C 24.238281 -40.351562 29.519531 -40.492188 34.8125 -40.546875 C 37.925781 -40.597656 41.082031 -40.625 44.28125 -40.625 C 47.488281 -40.625 50.644531 -40.421875 53.75 -40.015625 C 56.863281 -39.609375 59.921875 -38.789062 62.921875 -37.5625 Z M 62.921875 -37.5625 "/></g></g></g><g fill="#000000" fill-opacity="1"><g transform="translate(36.413442, 69.891572)"><g><path d="M 14.125 -10 C 14.382812 -9.59375 14.472656 -9.171875 14.390625 -8.734375 C 14.316406 -8.304688 14 -8.066406 13.4375 -8.015625 C 13.03125 -8.015625 12.648438 -8.128906 12.296875 -8.359375 C 11.941406 -8.585938 11.609375 -8.878906 11.296875 -9.234375 C 10.785156 -9.234375 10.097656 -8.925781 9.234375 -8.3125 C 8.367188 -7.707031 7.785156 -7.300781 7.484375 -7.09375 C 6.921875 -6.6875 6.382812 -6.242188 5.875 -5.765625 C 5.363281 -5.285156 4.859375 -4.789062 4.359375 -4.28125 C 2.160156 -1.9375 0.425781 0.609375 -0.84375 3.359375 C -1.144531 4.023438 -1.648438 4.203125 -2.359375 3.890625 C -3.078125 3.585938 -3.703125 3.078125 -4.234375 2.359375 C -4.773438 1.648438 -4.941406 1.039062 -4.734375 0.53125 C -3.921875 -1.757812 -3.066406 -4.007812 -2.171875 -6.21875 C -1.285156 -8.4375 -0.4375 -10.691406 0.375 -12.984375 C 0.582031 -13.492188 0.960938 -13.679688 1.515625 -13.546875 C 2.078125 -13.421875 2.640625 -13.101562 3.203125 -12.59375 C 3.765625 -12.082031 4.148438 -11.550781 4.359375 -11 C 6.085938 -12.320312 7.828125 -13.046875 9.578125 -13.171875 C 11.335938 -13.296875 12.851562 -12.238281 14.125 -10 Z M 14.125 -10 "/></g></g></g><g fill="#000000" fill-opacity="1"><g transform="translate(57.564816, 69.891572)"><g><path d="M 14.4375 -9.46875 C 14.894531 -9.875 15.414062 -9.960938 16 -9.734375 C 16.582031 -9.503906 17 -9.117188 17.25 -8.578125 C 17.507812 -8.046875 17.410156 -7.578125 16.953125 -7.171875 C 15.734375 -6.160156 14.472656 -5.15625 13.171875 -4.15625 C 11.867188 -3.164062 10.554688 -2.210938 9.234375 -1.296875 C 8.117188 -0.585938 6.945312 0.144531 5.71875 0.90625 C 4.5 1.675781 3.253906 2.210938 1.984375 2.515625 C 0.960938 2.671875 0.0078125 2.519531 -0.875 2.0625 C -1.769531 1.601562 -2.492188 0.953125 -3.046875 0.109375 C -3.609375 -0.722656 -3.890625 -1.648438 -3.890625 -2.671875 C -3.941406 -4.347656 -3.484375 -6.085938 -2.515625 -7.890625 C -1.546875 -9.703125 -0.65625 -11.320312 0.15625 -12.75 C 0.457031 -13.207031 0.863281 -13.382812 1.375 -13.28125 C 1.882812 -13.1875 2.394531 -12.929688 2.90625 -12.515625 C 3.414062 -12.109375 3.796875 -11.648438 4.046875 -11.140625 C 4.296875 -10.640625 4.320312 -10.207031 4.125 -9.84375 C 3.457031 -8.726562 2.84375 -7.597656 2.28125 -6.453125 C 1.726562 -5.304688 1.222656 -4.148438 0.765625 -2.984375 C 0.660156 -2.671875 0.53125 -2.335938 0.375 -1.984375 C 1.445312 -2.140625 2.847656 -2.625 4.578125 -3.4375 C 6.304688 -4.25 8.070312 -5.203125 9.875 -6.296875 C 11.6875 -7.390625 13.207031 -8.445312 14.4375 -9.46875 Z M 7.5625 -17.40625 C 7.25 -16.800781 6.722656 -16.648438 5.984375 -16.953125 C 5.253906 -17.253906 4.609375 -17.75 4.046875 -18.4375 C 3.484375 -19.125 3.332031 -19.75 3.59375 -20.3125 C 4.050781 -21.226562 4.378906 -21.898438 4.578125 -22.328125 C 4.785156 -22.765625 4.890625 -22.984375 4.890625 -22.984375 C 5.191406 -23.441406 5.597656 -23.628906 6.109375 -23.546875 C 6.617188 -23.472656 7.113281 -23.234375 7.59375 -22.828125 C 8.082031 -22.421875 8.460938 -21.960938 8.734375 -21.453125 C 9.015625 -20.941406 9.054688 -20.484375 8.859375 -20.078125 C 8.859375 -20.078125 8.78125 -19.910156 8.625 -19.578125 C 8.476562 -19.253906 8.125 -18.53125 7.5625 -17.40625 Z M 7.5625 -17.40625 "/></g></g></g><g fill="#000000" fill-opacity="1"><g transform="translate(75.127355, 69.891572)"><g><path d="M 17.40625 -14.65625 C 18.425781 -13.6875 19 -12.539062 19.125 -11.21875 C 19.25 -9.894531 19.082031 -8.625 18.625 -7.40625 C 18.019531 -5.875 17.117188 -4.296875 15.921875 -2.671875 C 14.722656 -1.046875 13.320312 0.320312 11.71875 1.4375 C 10.113281 2.5625 8.421875 3.125 6.640625 3.125 C 6.179688 3.125 5.6875 2.882812 5.15625 2.40625 C 4.625 1.925781 4.226562 1.429688 3.96875 0.921875 C 1.726562 4.378906 -0.253906 7.988281 -1.984375 11.75 C -3.710938 15.519531 -5.238281 19.316406 -6.5625 23.140625 C -6.71875 23.648438 -7.035156 23.878906 -7.515625 23.828125 C -8.003906 23.773438 -8.503906 23.546875 -9.015625 23.140625 C -9.523438 22.734375 -9.941406 22.257812 -10.265625 21.71875 C -10.597656 21.1875 -10.6875 20.71875 -10.53125 20.3125 C -8.5 14.40625 -6.488281 8.5 -4.5 2.59375 C -2.519531 -3.3125 -0.507812 -9.21875 1.53125 -15.125 C 1.675781 -15.625 1.988281 -15.835938 2.46875 -15.765625 C 2.957031 -15.691406 3.457031 -15.453125 3.96875 -15.046875 C 4.476562 -14.640625 4.882812 -14.179688 5.1875 -13.671875 C 5.5 -13.160156 5.578125 -12.675781 5.421875 -12.21875 C 5.171875 -11.457031 4.914062 -10.691406 4.65625 -9.921875 C 4.40625 -9.160156 4.148438 -8.398438 3.890625 -7.640625 C 4.703125 -8.703125 5.578125 -9.742188 6.515625 -10.765625 C 7.460938 -11.785156 8.472656 -12.726562 9.546875 -13.59375 C 10.765625 -14.664062 12.035156 -15.441406 13.359375 -15.921875 C 14.679688 -16.398438 16.03125 -15.976562 17.40625 -14.65625 Z M 14.515625 -9.84375 C 14.609375 -10.101562 14.679688 -10.375 14.734375 -10.65625 C 14.785156 -10.9375 14.835938 -11.203125 14.890625 -11.453125 C 14.679688 -11.347656 14.503906 -11.222656 14.359375 -11.078125 C 14.148438 -10.921875 13.929688 -10.753906 13.703125 -10.578125 C 13.472656 -10.398438 13.257812 -10.234375 13.0625 -10.078125 C 12.144531 -9.316406 11.273438 -8.488281 10.453125 -7.59375 C 9.640625 -6.707031 8.851562 -5.804688 8.09375 -4.890625 C 7.125 -3.710938 6.15625 -2.414062 5.1875 -1 C 6.5625 -1.144531 7.859375 -1.710938 9.078125 -2.703125 C 10.304688 -3.703125 11.390625 -4.863281 12.328125 -6.1875 C 13.273438 -7.507812 14.003906 -8.726562 14.515625 -9.84375 Z M 14.515625 -9.84375 "/></g></g></g><g fill="#000000" fill-opacity="1"><g transform="translate(101.318333, 69.891572)"><g><path d="M 13.96875 -10.234375 C 14.582031 -10.429688 15.101562 -10.3125 15.53125 -9.875 C 15.96875 -9.445312 16.210938 -8.925781 16.265625 -8.3125 C 16.316406 -7.707031 16.007812 -7.28125 15.34375 -7.03125 C 12.445312 -5.90625 9.828125 -4.425781 7.484375 -2.59375 C 7.835938 -1.476562 7.9375 -0.359375 7.78125 0.765625 C 7.582031 1.984375 7.085938 3.203125 6.296875 4.421875 C 5.503906 5.648438 4.523438 6.492188 3.359375 6.953125 C 2.191406 7.410156 0.96875 7.101562 -0.3125 6.03125 C -1.675781 4.863281 -2.347656 3.628906 -2.328125 2.328125 C -2.304688 1.023438 -1.8125 -0.257812 -0.84375 -1.53125 C 0.125 -2.800781 1.320312 -4.019531 2.75 -5.1875 C 2.1875 -5.851562 1.613281 -6.476562 1.03125 -7.0625 C 0.445312 -7.644531 -0.046875 -8.34375 -0.453125 -9.15625 C -0.910156 -10.03125 -1.140625 -11.015625 -1.140625 -12.109375 C -1.140625 -13.203125 -0.847656 -14.113281 -0.265625 -14.84375 C 0.316406 -15.582031 1.269531 -15.925781 2.59375 -15.875 C 3.15625 -15.832031 3.691406 -15.59375 4.203125 -15.15625 C 4.710938 -14.726562 5.09375 -14.257812 5.34375 -13.75 C 5.5 -13.382812 5.5625 -12.960938 5.53125 -12.484375 C 5.507812 -12.003906 5.21875 -11.765625 4.65625 -11.765625 C 3.789062 -11.859375 3.269531 -11.664062 3.09375 -11.1875 C 2.914062 -10.707031 2.914062 -10.160156 3.09375 -9.546875 C 3.269531 -8.929688 3.507812 -8.421875 3.8125 -8.015625 C 3.96875 -7.816406 4.144531 -7.613281 4.34375 -7.40625 C 4.550781 -7.195312 4.734375 -6.992188 4.890625 -6.796875 C 6.816406 -7.710938 8.609375 -8.425781 10.265625 -8.9375 C 11.921875 -9.445312 13.15625 -9.878906 13.96875 -10.234375 Z M 13.96875 -10.234375 "/></g></g></g><g fill="#000000" fill-opacity="1"><g transform="translate(118.499085, 69.891572)"><g/></g></g><g fill="#000000" fill-opacity="1"><g transform="translate(149.882426, 69.891572)"><g><path d="M 28.640625 -9.78125 C 29.140625 -10.1875 29.679688 -10.25 30.265625 -9.96875 C 30.859375 -9.6875 31.304688 -9.265625 31.609375 -8.703125 C 31.921875 -8.140625 31.847656 -7.65625 31.390625 -7.25 C 29.609375 -5.675781 27.8125 -4.125 26 -2.59375 C 24.195312 -1.070312 22.273438 0.273438 20.234375 1.453125 C 19.316406 2.015625 18.3125 2.535156 17.21875 3.015625 C 16.125 3.492188 15.015625 3.660156 13.890625 3.515625 C 12.722656 3.410156 11.707031 2.953125 10.84375 2.140625 C 9.976562 1.328125 9.367188 0.359375 9.015625 -0.765625 C 8.804688 -1.472656 8.726562 -2.15625 8.78125 -2.8125 C 8.832031 -3.476562 8.957031 -4.117188 9.15625 -4.734375 C 7.125 -3.410156 5.191406 -1.894531 3.359375 -0.1875 C 1.523438 1.507812 -0.5625 2.816406 -2.90625 3.734375 C -3.414062 3.941406 -3.960938 3.851562 -4.546875 3.46875 C -5.128906 3.09375 -5.597656 2.597656 -5.953125 1.984375 C -6.304688 1.367188 -6.4375 0.8125 -6.34375 0.3125 C -5.832031 -1.976562 -4.953125 -4.207031 -3.703125 -6.375 C -2.453125 -8.539062 -0.882812 -10.335938 1 -11.765625 C 2.519531 -12.878906 4.132812 -13.320312 5.84375 -13.09375 C 7.550781 -12.863281 8.960938 -12.035156 10.078125 -10.609375 C 10.484375 -10.765625 10.890625 -10.921875 11.296875 -11.078125 C 11.804688 -11.171875 12.394531 -10.988281 13.0625 -10.53125 C 13.46875 -10.226562 13.847656 -9.859375 14.203125 -9.421875 C 14.554688 -8.992188 14.757812 -8.578125 14.8125 -8.171875 C 14.863281 -7.910156 14.835938 -7.679688 14.734375 -7.484375 C 14.679688 -6.867188 14.550781 -6.28125 14.34375 -5.71875 C 14.144531 -5.164062 13.945312 -4.582031 13.75 -3.96875 C 13.539062 -3.40625 13.382812 -2.84375 13.28125 -2.28125 C 13.1875 -1.726562 13.0625 -1.144531 12.90625 -0.53125 C 12.957031 -0.53125 12.992188 -0.53125 13.015625 -0.53125 C 13.046875 -0.53125 13.085938 -0.53125 13.140625 -0.53125 C 14.253906 -0.6875 15.550781 -1.117188 17.03125 -1.828125 C 18.507812 -2.546875 20 -3.398438 21.5 -4.390625 C 23 -5.378906 24.382812 -6.359375 25.65625 -7.328125 C 26.925781 -8.296875 27.921875 -9.113281 28.640625 -9.78125 Z M 1.0625 -4.65625 C 2.082031 -5.46875 3.078125 -6.269531 4.046875 -7.0625 C 5.015625 -7.851562 6.03125 -8.578125 7.09375 -9.234375 C 7.050781 -9.234375 7.03125 -9.234375 7.03125 -9.234375 C 6.925781 -9.234375 6.796875 -9.21875 6.640625 -9.1875 C 6.492188 -9.164062 6.34375 -9.132812 6.1875 -9.09375 C 5.78125 -8.988281 5.382812 -8.804688 5 -8.546875 C 4.613281 -8.296875 4.269531 -8.039062 3.96875 -7.78125 C 3.40625 -7.320312 2.894531 -6.835938 2.4375 -6.328125 C 1.976562 -5.828125 1.570312 -5.320312 1.21875 -4.8125 C 1.164062 -4.757812 1.140625 -4.71875 1.140625 -4.6875 C 1.140625 -4.664062 1.113281 -4.65625 1.0625 -4.65625 Z M 1.0625 -4.65625 "/></g></g></g><g fill="#000000" fill-opacity="1"><g transform="translate(181.571209, 69.891572)"><g><path d="M 30.546875 -9.84375 C 31.109375 -10.101562 31.617188 -10.050781 32.078125 -9.6875 C 32.535156 -9.332031 32.800781 -8.890625 32.875 -8.359375 C 32.945312 -7.828125 32.65625 -7.40625 32 -7.09375 C 30.0625 -6.132812 28.148438 -5.101562 26.265625 -4 C 24.378906 -2.90625 22.492188 -1.773438 20.609375 -0.609375 C 19.492188 0.0976562 18.300781 0.875 17.03125 1.71875 C 15.757812 2.5625 14.4375 3.160156 13.0625 3.515625 C 11.738281 3.816406 10.578125 3.457031 9.578125 2.4375 C 8.585938 1.425781 8.195312 0.257812 8.40625 -1.0625 C 8.5 -1.832031 8.6875 -2.582031 8.96875 -3.3125 C 9.25 -4.050781 9.566406 -4.804688 9.921875 -5.578125 C 5.546875 -3.128906 1.726562 0.0234375 -1.53125 3.890625 C -1.9375 4.398438 -2.457031 4.460938 -3.09375 4.078125 C -3.726562 3.703125 -4.273438 3.15625 -4.734375 2.4375 C -5.191406 1.726562 -5.367188 1.144531 -5.265625 0.6875 C -4.753906 -1.25 -4.066406 -3.144531 -3.203125 -5 C -2.335938 -6.851562 -1.394531 -8.675781 -0.375 -10.46875 C -0.125 -10.925781 0.253906 -11.113281 0.765625 -11.03125 C 1.273438 -10.957031 1.78125 -10.71875 2.28125 -10.3125 C 2.789062 -9.90625 3.171875 -9.429688 3.421875 -8.890625 C 3.679688 -8.359375 3.710938 -7.914062 3.515625 -7.5625 C 3.515625 -7.507812 3.5 -7.457031 3.46875 -7.40625 C 3.445312 -7.351562 3.410156 -7.300781 3.359375 -7.25 C 6.816406 -9.644531 10.554688 -11.453125 14.578125 -12.671875 C 15.140625 -12.878906 15.722656 -12.765625 16.328125 -12.328125 C 16.941406 -11.898438 17.414062 -11.367188 17.75 -10.734375 C 18.082031 -10.097656 18.097656 -9.5 17.796875 -8.9375 C 17.128906 -7.863281 16.503906 -6.78125 15.921875 -5.6875 C 15.335938 -4.59375 14.765625 -3.484375 14.203125 -2.359375 C 16.847656 -3.691406 19.570312 -4.96875 22.375 -6.1875 C 25.175781 -7.40625 27.898438 -8.625 30.546875 -9.84375 Z M 30.546875 -9.84375 "/></g></g></g><g fill="#000000" fill-opacity="1"><g transform="translate(214.939862, 69.891572)"><g><path d="M 30.234375 -43.671875 C 30.898438 -43.472656 31.523438 -43.039062 32.109375 -42.375 C 32.691406 -41.71875 32.929688 -41.109375 32.828125 -40.546875 C 32.828125 -40.441406 32.804688 -40.335938 32.765625 -40.234375 C 28.835938 -32.554688 25.039062 -24.832031 21.375 -17.0625 C 17.707031 -9.300781 14.476562 -1.347656 11.6875 6.796875 C 11.53125 7.304688 11.207031 7.519531 10.71875 7.4375 C 10.238281 7.363281 9.742188 7.132812 9.234375 6.75 C 8.722656 6.375 8.316406 5.914062 8.015625 5.375 C 7.710938 4.84375 7.632812 4.347656 7.78125 3.890625 C 8.34375 2.265625 8.914062 0.625 9.5 -1.03125 C 10.09375 -2.6875 10.71875 -4.300781 11.375 -5.875 C 9.4375 -3.84375 7.335938 -1.984375 5.078125 -0.296875 C 2.816406 1.378906 0.285156 2.722656 -2.515625 3.734375 C -3.023438 3.941406 -3.570312 3.851562 -4.15625 3.46875 C -4.75 3.09375 -5.207031 2.597656 -5.53125 1.984375 C -5.863281 1.367188 -5.976562 0.8125 -5.875 0.3125 C -5.363281 -1.976562 -4.5 -4.207031 -3.28125 -6.375 C -2.0625 -8.539062 -0.507812 -10.335938 1.375 -11.765625 C 2.695312 -12.773438 4.117188 -13.242188 5.640625 -13.171875 C 7.171875 -13.097656 8.5 -12.550781 9.625 -11.53125 C 9.925781 -11.882812 10.207031 -12.210938 10.46875 -12.515625 C 14.125 -17.203125 17.425781 -22.15625 20.375 -27.375 C 23.332031 -32.59375 26.132812 -37.847656 28.78125 -43.140625 C 28.832031 -43.191406 28.859375 -43.242188 28.859375 -43.296875 C 29.066406 -43.597656 29.375 -43.75 29.78125 -43.75 C 29.9375 -43.75 30.085938 -43.722656 30.234375 -43.671875 Z M 0.3125 -2.75 C 1.675781 -3.613281 2.96875 -4.59375 4.1875 -5.6875 C 5.414062 -6.78125 6.59375 -7.9375 7.71875 -9.15625 C 7.613281 -9.207031 7.535156 -9.234375 7.484375 -9.234375 C 7.328125 -9.234375 7.171875 -9.21875 7.015625 -9.1875 C 6.867188 -9.164062 6.71875 -9.132812 6.5625 -9.09375 C 6.15625 -8.988281 5.757812 -8.804688 5.375 -8.546875 C 5 -8.296875 4.660156 -8.039062 4.359375 -7.78125 C 3.847656 -7.320312 3.363281 -6.835938 2.90625 -6.328125 C 2.445312 -5.828125 2.015625 -5.320312 1.609375 -4.8125 C 1.148438 -4.144531 0.71875 -3.457031 0.3125 -2.75 Z M 0.3125 -2.75 "/></g></g></g><g fill="#000000" fill-opacity="1"><g transform="translate(242.123514, 69.891572)"><g/></g></g><g fill="#000000" fill-opacity="1"><g transform="translate(273.506855, 69.891572)"><g><path d="M 37.953125 -29.328125 C 38.410156 -29.066406 38.878906 -28.671875 39.359375 -28.140625 C 39.847656 -27.609375 40.066406 -27.0625 40.015625 -26.5 C 39.960938 -25.9375 39.734375 -25.613281 39.328125 -25.53125 C 38.921875 -25.457031 38.488281 -25.550781 38.03125 -25.8125 C 36.039062 -26.832031 33.953125 -27.519531 31.765625 -27.875 C 29.578125 -28.226562 27.390625 -28.484375 25.203125 -28.640625 C 20.867188 -28.890625 16.515625 -28.988281 12.140625 -28.9375 C 12.085938 -28.9375 12.035156 -28.9375 11.984375 -28.9375 C 11.929688 -28.9375 11.90625 -28.9375 11.90625 -28.9375 C 9.664062 -24 7.617188 -18.984375 5.765625 -13.890625 C 3.910156 -8.804688 2.429688 -3.644531 1.328125 1.59375 C 0.234375 6.84375 -0.257812 12.191406 -0.15625 17.640625 C -0.15625 18.253906 -0.359375 18.582031 -0.765625 18.625 C -1.171875 18.675781 -1.640625 18.535156 -2.171875 18.203125 C -2.710938 17.878906 -3.1875 17.472656 -3.59375 16.984375 C -4 16.503906 -4.203125 16.035156 -4.203125 15.578125 C -4.347656 7.835938 -3.351562 0.28125 -1.21875 -7.09375 C 0.914062 -14.476562 3.507812 -21.6875 6.5625 -28.71875 C -0.757812 -28.300781 -8.015625 -27.40625 -15.203125 -26.03125 C -15.648438 -25.9375 -16.140625 -26.066406 -16.671875 -26.421875 C -17.210938 -26.773438 -17.671875 -27.207031 -18.046875 -27.71875 C -18.429688 -28.226562 -18.648438 -28.710938 -18.703125 -29.171875 C -18.753906 -29.628906 -18.550781 -29.910156 -18.09375 -30.015625 C -13.71875 -30.828125 -9.316406 -31.488281 -4.890625 -32 C -0.460938 -32.507812 3.988281 -32.8125 8.46875 -32.90625 C 9.289062 -34.6875 10.109375 -36.457031 10.921875 -38.21875 C 11.734375 -39.976562 12.570312 -41.722656 13.4375 -43.453125 C 13.644531 -43.910156 14 -44.097656 14.5 -44.015625 C 15.007812 -43.941406 15.519531 -43.703125 16.03125 -43.296875 C 16.539062 -42.890625 16.9375 -42.429688 17.21875 -41.921875 C 17.5 -41.410156 17.535156 -40.953125 17.328125 -40.546875 C 16.722656 -39.273438 16.125 -38.015625 15.53125 -36.765625 C 14.945312 -35.515625 14.351562 -34.28125 13.75 -33.0625 C 16.445312 -33.0625 19.207031 -33.007812 22.03125 -32.90625 C 24.851562 -32.8125 27.625 -32.492188 30.34375 -31.953125 C 33.070312 -31.421875 35.609375 -30.546875 37.953125 -29.328125 Z M 37.953125 -29.328125 "/></g></g></g><g fill="#000000" fill-opacity="1"><g transform="translate(286.640604, 69.891572)"><g><path d="M 14.4375 -9.46875 C 14.894531 -9.875 15.414062 -9.960938 16 -9.734375 C 16.582031 -9.503906 17 -9.117188 17.25 -8.578125 C 17.507812 -8.046875 17.410156 -7.578125 16.953125 -7.171875 C 15.734375 -6.160156 14.472656 -5.15625 13.171875 -4.15625 C 11.867188 -3.164062 10.554688 -2.210938 9.234375 -1.296875 C 8.117188 -0.585938 6.945312 0.144531 5.71875 0.90625 C 4.5 1.675781 3.253906 2.210938 1.984375 2.515625 C 0.960938 2.671875 0.0078125 2.519531 -0.875 2.0625 C -1.769531 1.601562 -2.492188 0.953125 -3.046875 0.109375 C -3.609375 -0.722656 -3.890625 -1.648438 -3.890625 -2.671875 C -3.941406 -4.347656 -3.484375 -6.085938 -2.515625 -7.890625 C -1.546875 -9.703125 -0.65625 -11.320312 0.15625 -12.75 C 0.457031 -13.207031 0.863281 -13.382812 1.375 -13.28125 C 1.882812 -13.1875 2.394531 -12.929688 2.90625 -12.515625 C 3.414062 -12.109375 3.796875 -11.648438 4.046875 -11.140625 C 4.296875 -10.640625 4.320312 -10.207031 4.125 -9.84375 C 3.457031 -8.726562 2.84375 -7.597656 2.28125 -6.453125 C 1.726562 -5.304688 1.222656 -4.148438 0.765625 -2.984375 C 0.660156 -2.671875 0.53125 -2.335938 0.375 -1.984375 C 1.445312 -2.140625 2.847656 -2.625 4.578125 -3.4375 C 6.304688 -4.25 8.070312 -5.203125 9.875 -6.296875 C 11.6875 -7.390625 13.207031 -8.445312 14.4375 -9.46875 Z M 7.5625 -17.40625 C 7.25 -16.800781 6.722656 -16.648438 5.984375 -16.953125 C 5.253906 -17.253906 4.609375 -17.75 4.046875 -18.4375 C 3.484375 -19.125 3.332031 -19.75 3.59375 -20.3125 C 4.050781 -21.226562 4.378906 -21.898438 4.578125 -22.328125 C 4.785156 -22.765625 4.890625 -22.984375 4.890625 -22.984375 C 5.191406 -23.441406 5.597656 -23.628906 6.109375 -23.546875 C 6.617188 -23.472656 7.113281 -23.234375 7.59375 -22.828125 C 8.082031 -22.421875 8.460938 -21.960938 8.734375 -21.453125 C 9.015625 -20.941406 9.054688 -20.484375 8.859375 -20.078125 C 8.859375 -20.078125 8.78125 -19.910156 8.625 -19.578125 C 8.476562 -19.253906 8.125 -18.53125 7.5625 -17.40625 Z M 7.5625 -17.40625 "/></g></g></g><g fill="#000000" fill-opacity="1"><g transform="translate(304.203143, 69.891572)"><g><path d="M 17.40625 -14.65625 C 18.425781 -13.6875 19 -12.539062 19.125 -11.21875 C 19.25 -9.894531 19.082031 -8.625 18.625 -7.40625 C 18.019531 -5.875 17.117188 -4.296875 15.921875 -2.671875 C 14.722656 -1.046875 13.320312 0.320312 11.71875 1.4375 C 10.113281 2.5625 8.421875 3.125 6.640625 3.125 C 6.179688 3.125 5.6875 2.882812 5.15625 2.40625 C 4.625 1.925781 4.226562 1.429688 3.96875 0.921875 C 1.726562 4.378906 -0.253906 7.988281 -1.984375 11.75 C -3.710938 15.519531 -5.238281 19.316406 -6.5625 23.140625 C -6.71875 23.648438 -7.035156 23.878906 -7.515625 23.828125 C -8.003906 23.773438 -8.503906 23.546875 -9.015625 23.140625 C -9.523438 22.734375 -9.941406 22.257812 -10.265625 21.71875 C -10.597656 21.1875 -10.6875 20.71875 -10.53125 20.3125 C -8.5 14.40625 -6.488281 8.5 -4.5 2.59375 C -2.519531 -3.3125 -0.507812 -9.21875 1.53125 -15.125 C 1.675781 -15.625 1.988281 -15.835938 2.46875 -15.765625 C 2.957031 -15.691406 3.457031 -15.453125 3.96875 -15.046875 C 4.476562 -14.640625 4.882812 -14.179688 5.1875 -13.671875 C 5.5 -13.160156 5.578125 -12.675781 5.421875 -12.21875 C 5.171875 -11.457031 4.914062 -10.691406 4.65625 -9.921875 C 4.40625 -9.160156 4.148438 -8.398438 3.890625 -7.640625 C 4.703125 -8.703125 5.578125 -9.742188 6.515625 -10.765625 C 7.460938 -11.785156 8.472656 -12.726562 9.546875 -13.59375 C 10.765625 -14.664062 12.035156 -15.441406 13.359375 -15.921875 C 14.679688 -16.398438 16.03125 -15.976562 17.40625 -14.65625 Z M 14.515625 -9.84375 C 14.609375 -10.101562 14.679688 -10.375 14.734375 -10.65625 C 14.785156 -10.9375 14.835938 -11.203125 14.890625 -11.453125 C 14.679688 -11.347656 14.503906 -11.222656 14.359375 -11.078125 C 14.148438 -10.921875 13.929688 -10.753906 13.703125 -10.578125 C 13.472656 -10.398438 13.257812 -10.234375 13.0625 -10.078125 C 12.144531 -9.316406 11.273438 -8.488281 10.453125 -7.59375 C 9.640625 -6.707031 8.851562 -5.804688 8.09375 -4.890625 C 7.125 -3.710938 6.15625 -2.414062 5.1875 -1 C 6.5625 -1.144531 7.859375 -1.710938 9.078125 -2.703125 C 10.304688 -3.703125 11.390625 -4.863281 12.328125 -6.1875 C 13.273438 -7.507812 14.003906 -8.726562 14.515625 -9.84375 Z M 14.515625 -9.84375 "/></g></g></g><g fill="#000000" fill-opacity="1"><g transform="translate(330.394122, 69.891572)"><g><path d="M 13.96875 -10.234375 C 14.582031 -10.429688 15.101562 -10.3125 15.53125 -9.875 C 15.96875 -9.445312 16.210938 -8.925781 16.265625 -8.3125 C 16.316406 -7.707031 16.007812 -7.28125 15.34375 -7.03125 C 12.445312 -5.90625 9.828125 -4.425781 7.484375 -2.59375 C 7.835938 -1.476562 7.9375 -0.359375 7.78125 0.765625 C 7.582031 1.984375 7.085938 3.203125 6.296875 4.421875 C 5.503906 5.648438 4.523438 6.492188 3.359375 6.953125 C 2.191406 7.410156 0.96875 7.101562 -0.3125 6.03125 C -1.675781 4.863281 -2.347656 3.628906 -2.328125 2.328125 C -2.304688 1.023438 -1.8125 -0.257812 -0.84375 -1.53125 C 0.125 -2.800781 1.320312 -4.019531 2.75 -5.1875 C 2.1875 -5.851562 1.613281 -6.476562 1.03125 -7.0625 C 0.445312 -7.644531 -0.046875 -8.34375 -0.453125 -9.15625 C -0.910156 -10.03125 -1.140625 -11.015625 -1.140625 -12.109375 C -1.140625 -13.203125 -0.847656 -14.113281 -0.265625 -14.84375 C 0.316406 -15.582031 1.269531 -15.925781 2.59375 -15.875 C 3.15625 -15.832031 3.691406 -15.59375 4.203125 -15.15625 C 4.710938 -14.726562 5.09375 -14.257812 5.34375 -13.75 C 5.5 -13.382812 5.5625 -12.960938 5.53125 -12.484375 C 5.507812 -12.003906 5.21875 -11.765625 4.65625 -11.765625 C 3.789062 -11.859375 3.269531 -11.664062 3.09375 -11.1875 C 2.914062 -10.707031 2.914062 -10.160156 3.09375 -9.546875 C 3.269531 -8.929688 3.507812 -8.421875 3.8125 -8.015625 C 3.96875 -7.816406 4.144531 -7.613281 4.34375 -7.40625 C 4.550781 -7.195312 4.734375 -6.992188 4.890625 -6.796875 C 6.816406 -7.710938 8.609375 -8.425781 10.265625 -8.9375 C 11.921875 -9.445312 13.15625 -9.878906 13.96875 -10.234375 Z M 13.96875 -10.234375 "/></g></g></g><g fill="#000000" fill-opacity="1"><g transform="translate(347.574873, 69.891572)"><g><path d="M 7.71875 -2.90625 C 7.71875 -2.695312 7.664062 -2.515625 7.5625 -2.359375 C 7.507812 -2.210938 7.378906 -2.113281 7.171875 -2.0625 C 6.710938 -1.707031 6.332031 -1.328125 6.03125 -0.921875 C 5.875 -0.710938 5.671875 -0.609375 5.421875 -0.609375 C 5.171875 -0.609375 4.96875 -0.632812 4.8125 -0.6875 C 4.507812 -0.738281 4.226562 -0.863281 3.96875 -1.0625 C 3.71875 -1.269531 3.488281 -1.476562 3.28125 -1.6875 C 2.769531 -2.132812 2.441406 -2.640625 2.296875 -3.203125 C 2.191406 -3.660156 2.265625 -4.066406 2.515625 -4.421875 C 2.722656 -4.734375 2.976562 -5.015625 3.28125 -5.265625 C 3.582031 -5.523438 3.914062 -5.753906 4.28125 -5.953125 C 4.53125 -6.003906 4.804688 -5.976562 5.109375 -5.875 C 5.316406 -5.820312 5.5 -5.773438 5.65625 -5.734375 C 5.957031 -5.578125 6.222656 -5.382812 6.453125 -5.15625 C 6.679688 -4.925781 6.894531 -4.679688 7.09375 -4.421875 C 7.25 -4.222656 7.390625 -3.984375 7.515625 -3.703125 C 7.648438 -3.421875 7.71875 -3.15625 7.71875 -2.90625 Z M 7.71875 -2.90625 "/></g></g></g></g></g></svg>